HIERARCHY
ROOT Hips
{
	OFFSET 29.656601 21.460085 99.079399
	CHANNELS 6 Xposition Yposition Zposition Xrotation Yrotation Zrotation
	JOINT spine
	{
		OFFSET 0.000000 -0.477354 8.301041
		CHANNELS 3 Xrotation Yrotation Zrotation
		JOINT spine1
		{
			OFFSET 0.000000 -0.000002 10.456497
			CHANNELS 3 Xrotation Yrotation Zrotation
			JOINT spine2
			{
				OFFSET 0.000000 -0.000002 10.019203
				CHANNELS 3 Xrotation Yrotation Zrotation
				JOINT Neck
				{
					OFFSET 0.000000 -1.226414 25.723495
					CHANNELS 3 Xrotation Yrotation Zrotation
					JOINT Head
					{
						OFFSET 0.000000 -0.000002 7.771744
						CHANNELS 3 Xrotation Yrotation Zrotation
						End Site
						{
							OFFSET 0.000000 6.203938 18.811996
						}
					}
				}
				JOINT RightShoulder
				{
					OFFSET -4.218800 0.587437 10.820007
					CHANNELS 3 Xrotation Yrotation Zrotation
					JOINT RightArm
					{
						OFFSET 0.000000 -0.000002 14.191406
						CHANNELS 3 Xrotation Yrotation Zrotation
						JOINT RightArmRoll
						{
							OFFSET 0.000000 -0.000002 7.164078
							CHANNELS 3 Xrotation Yrotation Zrotation
							JOINT RightForeArm
							{
								OFFSET 0.000000 -0.000002 20.866501
								CHANNELS 3 Xrotation Yrotation Zrotation
								JOINT RightForeArmRoll
								{
									OFFSET 0.000000 -0.000002 8.039215
									CHANNELS 3 Xrotation Yrotation Zrotation
									JOINT RightHand
									{
										OFFSET 0.000000 -0.000004 16.132996
										CHANNELS 3 Xrotation Yrotation Zrotation
										End Site
										{
											OFFSET 0.000000 0.000000 0.100006
										}
									}
								}
							}
						}
					}
				}
				JOINT LeftShoulder
				{
					OFFSET 4.218800 0.587437 10.820007
					CHANNELS 3 Xrotation Yrotation Zrotation
					JOINT LeftArm
					{
						OFFSET 0.000000 -0.000002 14.191406
						CHANNELS 3 Xrotation Yrotation Zrotation
						JOINT LeftArmRoll
						{
							OFFSET 0.000000 -0.000002 7.164093
							CHANNELS 3 Xrotation Yrotation Zrotation
							JOINT LeftForeArm
							{
								OFFSET 0.000000 -0.000002 20.866501
								CHANNELS 3 Xrotation Yrotation Zrotation
								JOINT LeftForeArmRoll
								{
									OFFSET 0.000000 -0.000002 8.039215
									CHANNELS 3 Xrotation Yrotation Zrotation
									JOINT LeftHand
									{
										OFFSET 0.000000 -0.000004 16.132996
										CHANNELS 3 Xrotation Yrotation Zrotation
										End Site
										{
											OFFSET 0.000000 0.000000 0.100006
										}
									}
								}
							}
						}
					}
				}
			}
		}
	}
	JOINT RightUpLeg
	{
		OFFSET -7.357731 1.131821 -1.349213
		CHANNELS 3 Xrotation Yrotation Zrotation
		JOINT RightUpLegRoll
		{
			OFFSET 0.000000 -0.000004 18.916801
			CHANNELS 3 Xrotation Yrotation Zrotation
			JOINT RightLeg
			{
				OFFSET 0.000000 0.000004 -23.425598
				CHANNELS 3 Xrotation Yrotation Zrotation
				JOINT RightLegRoll
				{
					OFFSET 0.000000 -0.000004 23.502304
					CHANNELS 3 Xrotation Yrotation Zrotation
					JOINT RightFoot
					{
						OFFSET 0.000000 -0.000004 19.561707
						CHANNELS 3 Xrotation Yrotation Zrotation
						JOINT RightToeBase
						{
							OFFSET 0.000000 -0.000002 16.352600
							CHANNELS 3 Xrotation Yrotation Zrotation
							End Site
							{
								OFFSET 0.006931 0.912834 7.919434
							}
						}
					}
				}
			}
		}
	}
	JOINT LeftUpLeg
	{
		OFFSET 7.357731 1.131821 -1.349213
		CHANNELS 3 Xrotation Yrotation Zrotation
		JOINT LeftUpLegRoll
		{
			OFFSET 0.000000 -0.000004 18.916901
			CHANNELS 3 Xrotation Yrotation Zrotation
			JOINT LeftLeg
			{
				OFFSET 0.000000 -0.000004 23.425499
				CHANNELS 3 Xrotation Yrotation Zrotation
				JOINT LeftLegRoll
				{
					OFFSET 0.000000 -0.000004 23.719498
					CHANNELS 3 Xrotation Yrotation Zrotation
					JOINT LeftFoot
					{
						OFFSET 0.000000 -0.000004 19.344406
						CHANNELS 3 Xrotation Yrotation Zrotation
						JOINT LeftToeBase
						{
							OFFSET 0.000000 -0.000002 16.352600
							CHANNELS 3 Xrotation Yrotation Zrotation
							End Site
							{
								OFFSET -0.031063 0.912834 7.919434
							}
						}
					}
				}
			}
		}
	}
}
MOTION
Frames: 6
Frame Time: 0.041667
33.324997 8.702431 98.994980 -6.187920 -0.258665 2.438485 -0.227157 -0.184173 0.231154 3.549252 -0.367330 0.445012 5.194322 -0.361974 0.449381 21.242933 2.854964 -3.019062 -2.208188 -2.703263 -2.716447 -2.593699 -72.325119 -4.429032 -75.775116 -119.414520 -50.474381 0.000001 -0.000003 0.000002 0.055510 -6.726165 0.073206 0.000002 0.000006 -3.058000 -5.000185 -7.999150 0.000113 12.068519 67.533980 -12.392483 -64.973493 111.660827 48.071735 0.000002 -0.000001 -0.000002 0.158594 9.024863 0.509642 0.000005 -0.000005 3.002022 -5.000226 7.998871 -0.000129 2.341410 -174.045938 2.309929 -179.999991 0.000005 -1.192997 174.165343 -3.382422 -0.682433 -0.000005 0.000001 0.060423 68.318762 6.923856 2.076841 25.456926 -7.351917 -0.000002 1.820670 173.053484 -1.002692 -0.000005 -0.000005 -1.280471 -8.756370 3.024183 0.966558 -0.000001 0.000000 -0.094453 67.528557 -6.976866 -2.012425 25.456883 7.354502 0.000002 
33.329102 8.721955 98.985390 -6.182792 -0.256180 2.442818 -0.224978 -0.184958 0.230461 3.553603 -0.369252 0.444956 5.198685 -0.363898 0.449347 21.245715 2.869120 -3.021916 -2.227160 -2.715250 -2.718490 -2.601171 -72.306111 -4.435421 -75.747891 -119.371435 -50.411526 0.000001 -0.000002 0.000004 0.055508 -6.711106 0.073027 0.000000 0.000007 -3.058001 -5.000184 -7.999149 0.000114 12.057830 67.535189 -12.380421 -64.959839 111.611315 48.005025 0.000003 -0.000001 -0.000001 0.152250 9.000927 0.516345 0.000005 -0.000005 3.002701 -5.000230 7.998871 -0.000129 2.332663 -174.047905 2.309941 -179.999991 0.000005 -1.192997 174.152817 -3.385336 -0.683478 -0.000005 0.000001 0.060360 68.319705 6.923852 2.076882 25.456926 -7.351920 -0.000002 1.795413 173.048375 -1.007299 -0.000005 -0.000005 -1.280469 -8.792926 3.025962 0.968088 -0.000002 -0.000000 -0.094541 67.529821 -6.976873 -2.012345 25.456878 7.354499 0.000003 
33.327896 8.702842 98.985786 -6.177753 -0.253711 2.447228 -0.222822 -0.185723 0.229717 3.557923 -0.371164 0.444849 5.202995 -0.365814 0.449264 21.248394 2.883277 -3.024717 -2.245793 -2.727236 -2.720472 -2.608785 -72.287198 -4.441964 -75.721192 -119.329115 -50.348873 -0.000000 -0.000002 0.000003 0.055507 -6.695616 0.072758 -0.000000 0.000006 -3.058012 -5.000182 -7.999150 0.000114 12.047050 67.536521 -12.368252 -64.946274 111.562117 47.937348 0.000001 -0.000001 -0.000001 0.145668 8.976211 0.523179 0.000005 -0.000005 3.003400 -5.000229 7.998871 -0.000129 2.324642 -174.049858 2.310169 -179.999991 0.000005 -1.192997 174.141465 -3.387251 -0.683354 -0.000005 0.000001 0.060263 68.320436 6.923835 2.076833 25.456930 -7.351919 -0.000003 1.770130 173.042296 -1.012155 -0.000005 -0.000004 -1.280470 -8.829965 3.027932 0.969637 -0.000002 -0.000000 -0.094609 67.531289 -6.976862 -2.012352 25.456878 7.354500 0.000003 
33.326698 8.704886 98.988792 -6.172760 -0.251256 2.451706 -0.220680 -0.186475 0.228938 3.562205 -0.373071 0.444707 5.207276 -0.367724 0.449144 21.250981 2.897436 -3.027463 -2.264209 -2.739232 -2.722434 -2.616493 -72.268374 -4.448620 -75.694656 -119.287177 -50.286257 -0.000002 -0.000002 0.000002 0.055508 -6.679845 0.072426 -0.000001 0.000006 -3.058020 -5.000182 -7.999150 0.000112 12.036209 67.537839 -12.356012 -64.932908 111.513097 47.869333 0.000002 -0.000001 -0.000002 0.138932 8.950943 0.530096 0.000004 -0.000005 3.004109 -5.000231 7.998871 -0.000129 2.317124 -174.051839 2.310539 -179.999991 0.000005 -1.192997 174.130905 -3.390177 -0.683288 -0.000005 0.000001 0.060141 68.320866 6.923865 2.076810 25.456926 -7.351919 -0.000003 1.744818 173.036190 -1.017161 -0.000005 -0.000005 -1.280471 -8.867357 3.030046 0.971203 -0.000001 -0.000000 -0.094667 67.532860 -6.976857 -2.012252 25.456885 7.354500 0.000004 
33.328197 8.695642 98.988998 -6.167810 -0.248807 2.456212 -0.218549 -0.187219 0.228142 3.566466 -0.374974 0.444543 5.211537 -0.369631 0.449004 21.253558 2.911594 -3.030180 -2.282482 -2.751218 -2.724375 -2.624230 -72.249447 -4.455296 -75.668237 -119.245527 -50.223528 -0.000002 -0.000002 0.000002 0.055508 -6.663896 0.072058 0.000001 0.000006 -3.058029 -5.000185 -7.999149 0.000113 12.025341 67.539164 -12.343731 -64.919288 111.464343 47.800604 0.000003 -0.000001 -0.000002 0.132100 8.925373 0.537063 0.000003 -0.000005 3.004831 -5.000229 7.998872 -0.000128 2.309898 -174.053806 2.310990 -179.999991 0.000005 -1.192997 174.120797 -3.393105 -0.684193 -0.000005 0.000001 0.060006 68.321283 6.923861 2.076884 25.456926 -7.351917 -0.000003 1.719480 173.031095 -1.022220 -0.000004 -0.000004 -1.280470 -8.904939 3.032225 0.972779 -0.000001 -0.000000 -0.094717 67.534540 -6.976866 -2.012147 25.456878 7.354500 0.000004 
33.321896 8.689107 98.984688 -6.162866 -0.246359 2.460718 -0.216421 -0.187960 0.227339 3.570726 -0.376875 0.444376 5.215799 -0.371537 0.448859 21.256046 2.925752 -3.032895 -2.300726 -2.763213 -2.726314 -2.631982 -72.230630 -4.461996 -75.641791 -119.203972 -50.160868 -0.000001 -0.000002 0.000003 0.055509 -6.647907 0.071682 0.000001 0.000007 -3.058039 -5.000183 -7.999150 0.000113 12.014373 67.540401 -12.331358 -64.905799 111.415671 47.731865 0.000001 -0.000002 -0.000003 0.125247 8.899716 0.544036 0.000007 -0.000005 3.005550 -5.000226 7.998872 -0.000129 2.302736 -174.054762 2.311508 -179.999991 0.000005 -1.192997 174.110811 -3.396020 -0.684093 -0.000005 0.000001 0.059867 68.321713 6.923856 2.076856 25.456930 -7.351920 -0.000002 1.694143 173.025016 -1.027328 -0.000004 -0.000005 -1.280470 -8.942570 3.034423 0.974359 -0.000002 0.000000 -0.094764 67.536227 -6.976873 -2.012141 25.456880 7.354501 0.000003 
